%TF.GenerationSoftware,KiCad,Pcbnew,10.0.0*%
%TF.CreationDate,2026-05-11T14:02:22+09:00*%
%TF.ProjectId,yuho,7975686f-2e6b-4696-9361-645f70636258,rev?*%
%TF.SameCoordinates,Original*%
%TF.FileFunction,Paste,Top*%
%TF.FilePolarity,Positive*%
%FSLAX46Y46*%
G04 Gerber Fmt 4.6, Leading zero omitted, Abs format (unit mm)*
G04 Created by KiCad (PCBNEW 10.0.0) date 2026-05-11 14:02:22*
%MOMM*%
%LPD*%
G01*
G04 APERTURE LIST*
G04 Aperture macros list*
%AMRoundRect*
0 Rectangle with rounded corners*
0 $1 Rounding radius*
0 $2 $3 $4 $5 $6 $7 $8 $9 X,Y pos of 4 corners*
0 Add a 4 corners polygon primitive as box body*
4,1,4,$2,$3,$4,$5,$6,$7,$8,$9,$2,$3,0*
0 Add four circle primitives for the rounded corners*
1,1,$1+$1,$2,$3*
1,1,$1+$1,$4,$5*
1,1,$1+$1,$6,$7*
1,1,$1+$1,$8,$9*
0 Add four rect primitives between the rounded corners*
20,1,$1+$1,$2,$3,$4,$5,0*
20,1,$1+$1,$4,$5,$6,$7,0*
20,1,$1+$1,$6,$7,$8,$9,0*
20,1,$1+$1,$8,$9,$2,$3,0*%
%AMFreePoly0*
4,1,13,0.900000,0.500000,2.600000,0.500000,2.600000,-0.500000,0.900000,-0.500000,0.400000,-1.000000,-0.400000,-1.000000,-0.900000,-0.500000,-2.600000,-0.500000,-2.600000,0.500000,-0.900000,0.500000,-0.400000,1.000000,0.400000,1.000000,0.900000,0.500000,0.900000,0.500000,$1*%
G04 Aperture macros list end*
%ADD10RoundRect,0.237500X0.237500X-0.250000X0.237500X0.250000X-0.237500X0.250000X-0.237500X-0.250000X0*%
%ADD11RoundRect,0.237500X-0.237500X0.250000X-0.237500X-0.250000X0.237500X-0.250000X0.237500X0.250000X0*%
%ADD12RoundRect,0.150000X0.150000X-0.587500X0.150000X0.587500X-0.150000X0.587500X-0.150000X-0.587500X0*%
%ADD13R,1.050000X0.650000*%
%ADD14RoundRect,0.237500X0.287500X0.237500X-0.287500X0.237500X-0.287500X-0.237500X0.287500X-0.237500X0*%
%ADD15RoundRect,0.237500X-0.250000X-0.237500X0.250000X-0.237500X0.250000X0.237500X-0.250000X0.237500X0*%
%ADD16RoundRect,0.375000X0.375000X-0.625000X0.375000X0.625000X-0.375000X0.625000X-0.375000X-0.625000X0*%
%ADD17RoundRect,0.500000X1.400000X-0.500000X1.400000X0.500000X-1.400000X0.500000X-1.400000X-0.500000X0*%
%ADD18RoundRect,0.237500X0.250000X0.237500X-0.250000X0.237500X-0.250000X-0.237500X0.250000X-0.237500X0*%
%ADD19RoundRect,0.237500X-0.287500X-0.237500X0.287500X-0.237500X0.287500X0.237500X-0.287500X0.237500X0*%
%ADD20RoundRect,0.237500X-0.237500X0.300000X-0.237500X-0.300000X0.237500X-0.300000X0.237500X0.300000X0*%
%ADD21RoundRect,0.237500X0.237500X-0.287500X0.237500X0.287500X-0.237500X0.287500X-0.237500X-0.287500X0*%
%ADD22RoundRect,0.237500X-0.044194X-0.380070X0.380070X0.044194X0.044194X0.380070X-0.380070X-0.044194X0*%
%ADD23RoundRect,0.075000X-0.548008X0.441942X0.441942X-0.548008X0.548008X-0.441942X-0.441942X0.548008X0*%
%ADD24RoundRect,0.075000X-0.548008X-0.441942X-0.441942X-0.548008X0.548008X0.441942X0.441942X0.548008X0*%
%ADD25RoundRect,0.100000X0.100000X-0.850000X0.100000X0.850000X-0.100000X0.850000X-0.100000X-0.850000X0*%
%ADD26R,1.300000X1.300000*%
%ADD27R,1.500000X1.300000*%
%ADD28RoundRect,0.237500X0.237500X-0.300000X0.237500X0.300000X-0.237500X0.300000X-0.237500X-0.300000X0*%
%ADD29RoundRect,0.250000X0.337500X0.475000X-0.337500X0.475000X-0.337500X-0.475000X0.337500X-0.475000X0*%
%ADD30RoundRect,0.237500X-0.237500X0.287500X-0.237500X-0.287500X0.237500X-0.287500X0.237500X0.287500X0*%
%ADD31RoundRect,0.237500X-0.300000X-0.237500X0.300000X-0.237500X0.300000X0.237500X-0.300000X0.237500X0*%
%ADD32RoundRect,0.250000X-0.337500X-0.475000X0.337500X-0.475000X0.337500X0.475000X-0.337500X0.475000X0*%
%ADD33RoundRect,0.175000X0.575000X0.175000X-0.575000X0.175000X-0.575000X-0.175000X0.575000X-0.175000X0*%
%ADD34FreePoly0,180.000000*%
%ADD35RoundRect,0.250000X0.550000X-0.250000X0.550000X0.250000X-0.550000X0.250000X-0.550000X-0.250000X0*%
%ADD36RoundRect,0.150000X0.587500X0.150000X-0.587500X0.150000X-0.587500X-0.150000X0.587500X-0.150000X0*%
%ADD37RoundRect,0.250000X-0.650000X0.412500X-0.650000X-0.412500X0.650000X-0.412500X0.650000X0.412500X0*%
%ADD38R,2.100000X0.750000*%
%ADD39RoundRect,0.237500X0.330681X-0.097756X0.080681X0.335256X-0.330681X0.097756X-0.080681X-0.335256X0*%
%ADD40RoundRect,0.150000X-0.587500X-0.150000X0.587500X-0.150000X0.587500X0.150000X-0.587500X0.150000X0*%
%ADD41RoundRect,0.087500X0.225000X0.087500X-0.225000X0.087500X-0.225000X-0.087500X0.225000X-0.087500X0*%
%ADD42RoundRect,0.087500X0.087500X0.225000X-0.087500X0.225000X-0.087500X-0.225000X0.087500X-0.225000X0*%
%ADD43R,0.800000X1.500000*%
%ADD44RoundRect,0.362500X0.362500X0.637500X-0.362500X0.637500X-0.362500X-0.637500X0.362500X-0.637500X0*%
%ADD45RoundRect,0.237500X-0.380070X0.044194X0.044194X-0.380070X0.380070X-0.044194X-0.044194X0.380070X0*%
%ADD46RoundRect,0.250000X-0.300000X-0.300000X0.300000X-0.300000X0.300000X0.300000X-0.300000X0.300000X0*%
%ADD47RoundRect,0.250000X0.300000X0.300000X-0.300000X0.300000X-0.300000X-0.300000X0.300000X-0.300000X0*%
%ADD48RoundRect,0.237500X0.044194X0.380070X-0.380070X-0.044194X-0.044194X-0.380070X0.380070X0.044194X0*%
%ADD49RoundRect,0.237500X0.219193X0.266197X-0.277081X0.205262X-0.219193X-0.266197X0.277081X-0.205262X0*%
%ADD50R,0.650000X1.050000*%
%ADD51RoundRect,0.250000X0.412500X1.100000X-0.412500X1.100000X-0.412500X-1.100000X0.412500X-1.100000X0*%
G04 APERTURE END LIST*
D10*
%TO.C,R11*%
X127900000Y-67912500D03*
X127900000Y-66087500D03*
%TD*%
D11*
%TO.C,R19*%
X153360000Y-99670000D03*
X153360000Y-101495000D03*
%TD*%
D12*
%TO.C,Q7*%
X131740000Y-68765000D03*
X133640000Y-68765000D03*
X132690000Y-66890000D03*
%TD*%
D13*
%TO.C,SW3*%
X148249000Y-91549002D03*
X144099000Y-91549002D03*
X148249000Y-93699000D03*
X144099000Y-93699000D03*
%TD*%
D14*
%TO.C,D28*%
X149802500Y-110970968D03*
X148052500Y-110970968D03*
%TD*%
D15*
%TO.C,R16*%
X76247500Y-146752500D03*
X78072500Y-146752500D03*
%TD*%
D14*
%TO.C,D16*%
X149802500Y-114029032D03*
X148052500Y-114029032D03*
%TD*%
D11*
%TO.C,R18*%
X150220000Y-130987500D03*
X150220000Y-132812500D03*
%TD*%
D14*
%TO.C,D22*%
X149802500Y-123203226D03*
X148052500Y-123203226D03*
%TD*%
D15*
%TO.C,R48*%
X144715000Y-106383871D03*
X146540000Y-106383871D03*
%TD*%
D16*
%TO.C,U2*%
X89650000Y-130810000D03*
X91950000Y-130810000D03*
D17*
X91950000Y-124510000D03*
D16*
X94250000Y-130810000D03*
%TD*%
D10*
%TO.C,R23*%
X138112500Y-88887500D03*
X138112500Y-87062500D03*
%TD*%
D15*
%TO.C,R36*%
X144715000Y-118616129D03*
X146540000Y-118616129D03*
%TD*%
%TO.C,R26*%
X125457500Y-146340000D03*
X127282500Y-146340000D03*
%TD*%
D18*
%TO.C,R17*%
X115650000Y-128970000D03*
X113825000Y-128970000D03*
%TD*%
D19*
%TO.C,D8*%
X94912500Y-72280000D03*
X96662500Y-72280000D03*
%TD*%
D14*
%TO.C,D17*%
X149802500Y-115558064D03*
X148052500Y-115558064D03*
%TD*%
D15*
%TO.C,R45*%
X144715000Y-123203226D03*
X146540000Y-123203226D03*
%TD*%
%TO.C,R35*%
X144715000Y-117087097D03*
X146540000Y-117087097D03*
%TD*%
D20*
%TO.C,C20*%
X97341378Y-59730696D03*
X97341378Y-61455696D03*
%TD*%
D15*
%TO.C,R51*%
X144715000Y-110970968D03*
X146540000Y-110970968D03*
%TD*%
D21*
%TO.C,D9*%
X139610000Y-88615000D03*
X139610000Y-86865000D03*
%TD*%
D22*
%TO.C,C16*%
X100412616Y-108302136D03*
X101632376Y-107082376D03*
%TD*%
D11*
%TO.C,R15*%
X99610000Y-125847500D03*
X99610000Y-127672500D03*
%TD*%
D15*
%TO.C,R33*%
X144715000Y-114029032D03*
X146540000Y-114029032D03*
%TD*%
D23*
%TO.C,U1*%
X107594085Y-106094591D03*
X107240532Y-106448144D03*
X106886979Y-106801697D03*
X106533425Y-107155251D03*
X106179872Y-107508804D03*
X105826318Y-107862358D03*
X105472765Y-108215911D03*
X105119212Y-108569464D03*
X104765658Y-108923018D03*
X104412105Y-109276571D03*
X104058552Y-109630124D03*
X103704998Y-109983678D03*
X103351445Y-110337231D03*
X102997891Y-110690785D03*
X102644338Y-111044338D03*
X102290785Y-111397891D03*
D24*
X102290785Y-114120253D03*
X102644338Y-114473806D03*
X102997891Y-114827359D03*
X103351445Y-115180913D03*
X103704998Y-115534466D03*
X104058552Y-115888020D03*
X104412105Y-116241573D03*
X104765658Y-116595126D03*
X105119212Y-116948680D03*
X105472765Y-117302233D03*
X105826318Y-117655786D03*
X106179872Y-118009340D03*
X106533425Y-118362893D03*
X106886979Y-118716447D03*
X107240532Y-119070000D03*
X107594085Y-119423553D03*
D23*
X110316447Y-119423553D03*
X110670000Y-119070000D03*
X111023553Y-118716447D03*
X111377107Y-118362893D03*
X111730660Y-118009340D03*
X112084214Y-117655786D03*
X112437767Y-117302233D03*
X112791320Y-116948680D03*
X113144874Y-116595126D03*
X113498427Y-116241573D03*
X113851980Y-115888020D03*
X114205534Y-115534466D03*
X114559087Y-115180913D03*
X114912641Y-114827359D03*
X115266194Y-114473806D03*
X115619747Y-114120253D03*
D24*
X115619747Y-111397891D03*
X115266194Y-111044338D03*
X114912641Y-110690785D03*
X114559087Y-110337231D03*
X114205534Y-109983678D03*
X113851980Y-109630124D03*
X113498427Y-109276571D03*
X113144874Y-108923018D03*
X112791320Y-108569464D03*
X112437767Y-108215911D03*
X112084214Y-107862358D03*
X111730660Y-107508804D03*
X111377107Y-107155251D03*
X111023553Y-106801697D03*
X110670000Y-106448144D03*
X110316447Y-106094591D03*
%TD*%
D11*
%TO.C,R21*%
X73650000Y-87187500D03*
X73650000Y-89012500D03*
%TD*%
D14*
%TO.C,D20*%
X149802500Y-120145161D03*
X148052500Y-120145161D03*
%TD*%
D12*
%TO.C,Q12*%
X88750000Y-146787500D03*
X90650000Y-146787500D03*
X89700000Y-144912500D03*
%TD*%
D19*
%TO.C,D12*%
X125515000Y-147830000D03*
X127265000Y-147830000D03*
%TD*%
D15*
%TO.C,R32*%
X144715000Y-103325806D03*
X146540000Y-103325806D03*
%TD*%
D12*
%TO.C,Q1*%
X125562500Y-86350000D03*
X127462500Y-86350000D03*
X126512500Y-84475000D03*
%TD*%
D15*
%TO.C,R22*%
X94875000Y-73740000D03*
X96700000Y-73740000D03*
%TD*%
%TO.C,R7*%
X82750000Y-71550000D03*
X84575000Y-71550000D03*
%TD*%
%TO.C,R52*%
X144715000Y-112500000D03*
X146540000Y-112500000D03*
%TD*%
D25*
%TO.C,U5*%
X101820000Y-135580000D03*
X102470000Y-135580000D03*
X103120000Y-135580000D03*
X103770000Y-135580000D03*
X104420000Y-135580000D03*
X105070000Y-135580000D03*
X105720000Y-135580000D03*
X106370000Y-135580000D03*
X107020000Y-135580000D03*
X107670000Y-135580000D03*
X108320000Y-135580000D03*
X108970000Y-135580000D03*
X108970000Y-128580000D03*
X108320000Y-128580000D03*
X107670000Y-128580000D03*
X107020000Y-128580000D03*
X106370000Y-128580000D03*
X105720000Y-128580000D03*
X105070000Y-128580000D03*
X104420000Y-128580000D03*
X103770000Y-128580000D03*
X103120000Y-128580000D03*
X102470000Y-128580000D03*
X101820000Y-128580000D03*
%TD*%
D15*
%TO.C,R50*%
X144715000Y-109441935D03*
X146540000Y-109441935D03*
%TD*%
D20*
%TO.C,C11*%
X100270000Y-131102500D03*
X100270000Y-132827500D03*
%TD*%
D26*
%TO.C,LS1*%
X122010000Y-128800000D03*
D27*
X121910000Y-125300000D03*
X117410000Y-125300000D03*
%TD*%
D22*
%TO.C,C22*%
X112275386Y-104158952D03*
X113495146Y-102939192D03*
%TD*%
D14*
%TO.C,D21*%
X149802500Y-121674193D03*
X148052500Y-121674193D03*
%TD*%
D28*
%TO.C,C5*%
X117700000Y-102950000D03*
X117700000Y-101225000D03*
%TD*%
%TO.C,C6*%
X116200000Y-102950000D03*
X116200000Y-101225000D03*
%TD*%
D11*
%TO.C,R27*%
X92370000Y-145227500D03*
X92370000Y-147052500D03*
%TD*%
%TO.C,R6*%
X124020000Y-83075000D03*
X124020000Y-84900000D03*
%TD*%
D15*
%TO.C,R46*%
X144715000Y-124732258D03*
X146540000Y-124732258D03*
%TD*%
D29*
%TO.C,C3*%
X92937500Y-116300000D03*
X90862500Y-116300000D03*
%TD*%
D18*
%TO.C,R40*%
X116970000Y-67270000D03*
X115145000Y-67270000D03*
%TD*%
%TO.C,R38*%
X102880000Y-68630000D03*
X101055000Y-68630000D03*
%TD*%
D14*
%TO.C,D26*%
X149802500Y-107912903D03*
X148052500Y-107912903D03*
%TD*%
%TO.C,D27*%
X149802500Y-109441935D03*
X148052500Y-109441935D03*
%TD*%
D10*
%TO.C,R13*%
X93830000Y-150202500D03*
X93830000Y-148377500D03*
%TD*%
D14*
%TO.C,D14*%
X149802500Y-101796774D03*
X148052500Y-101796774D03*
%TD*%
D15*
%TO.C,R43*%
X144715000Y-120145161D03*
X146540000Y-120145161D03*
%TD*%
D30*
%TO.C,D11*%
X73362500Y-138550000D03*
X73362500Y-140300000D03*
%TD*%
D31*
%TO.C,C10*%
X104415000Y-124700000D03*
X106140000Y-124700000D03*
%TD*%
D11*
%TO.C,R37*%
X109950000Y-69487500D03*
X109950000Y-71312500D03*
%TD*%
D10*
%TO.C,R30*%
X104410000Y-122015000D03*
X104410000Y-120190000D03*
%TD*%
D14*
%TO.C,D15*%
X149802500Y-103325806D03*
X148052500Y-103325806D03*
%TD*%
D32*
%TO.C,C4*%
X90975000Y-109250000D03*
X93050000Y-109250000D03*
%TD*%
D14*
%TO.C,D29*%
X149802500Y-112500000D03*
X148052500Y-112500000D03*
%TD*%
D33*
%TO.C,U3*%
X93870000Y-114260000D03*
D34*
X92020000Y-112760000D03*
D33*
X93870000Y-111260000D03*
X90170000Y-111260000D03*
X90170000Y-114260000D03*
%TD*%
D15*
%TO.C,R2*%
X125550000Y-88100000D03*
X127375000Y-88100000D03*
%TD*%
D18*
%TO.C,R42*%
X117042500Y-65360000D03*
X115217500Y-65360000D03*
%TD*%
D20*
%TO.C,C8*%
X98810000Y-131102500D03*
X98810000Y-132827500D03*
%TD*%
D15*
%TO.C,R49*%
X144715000Y-107912903D03*
X146540000Y-107912903D03*
%TD*%
D35*
%TO.C,SW1*%
X74462500Y-149650000D03*
X72162500Y-147900000D03*
X74462500Y-146150000D03*
%TD*%
D15*
%TO.C,R44*%
X144715000Y-121674193D03*
X146540000Y-121674193D03*
%TD*%
D18*
%TO.C,R9*%
X77580000Y-64190000D03*
X75755000Y-64190000D03*
%TD*%
D36*
%TO.C,Q3*%
X83550000Y-84100000D03*
X83550000Y-82200000D03*
X81675000Y-83150000D03*
%TD*%
D37*
%TO.C,C26*%
X96910000Y-130820000D03*
X96910000Y-133945000D03*
%TD*%
D38*
%TO.C,J1*%
X131220000Y-148490000D03*
X134820000Y-148490000D03*
X131220000Y-147220000D03*
X134820000Y-147220000D03*
X131220000Y-145950000D03*
X134820000Y-145950000D03*
X131220000Y-144680000D03*
X134820000Y-144680000D03*
X131220000Y-143410000D03*
X134820000Y-143410000D03*
%TD*%
D15*
%TO.C,R34*%
X144715000Y-115558064D03*
X146540000Y-115558064D03*
%TD*%
D39*
%TO.C,R8*%
X80556250Y-64340248D03*
X79643750Y-62759752D03*
%TD*%
D11*
%TO.C,R5*%
X130970000Y-81920000D03*
X130970000Y-83745000D03*
%TD*%
D40*
%TO.C,Q10*%
X115925000Y-130470000D03*
X115925000Y-132370000D03*
X117800000Y-131420000D03*
%TD*%
D12*
%TO.C,Q5*%
X82712500Y-69487500D03*
X84612500Y-69487500D03*
X83662500Y-67612500D03*
%TD*%
D31*
%TO.C,C7*%
X120925000Y-101050000D03*
X122650000Y-101050000D03*
%TD*%
D15*
%TO.C,R47*%
X144715000Y-104854839D03*
X146540000Y-104854839D03*
%TD*%
%TO.C,R20*%
X114645000Y-73740000D03*
X116470000Y-73740000D03*
%TD*%
D20*
%TO.C,C19*%
X95851378Y-59730696D03*
X95851378Y-61455696D03*
%TD*%
D14*
%TO.C,D23*%
X149802500Y-124732258D03*
X148052500Y-124732258D03*
%TD*%
D41*
%TO.C,U4*%
X122862500Y-105312500D03*
X122862500Y-104812500D03*
X122862500Y-104312500D03*
X122862500Y-103812500D03*
D42*
X122200000Y-103650000D03*
X121700000Y-103650000D03*
X121200000Y-103650000D03*
D41*
X120537500Y-103812500D03*
X120537500Y-104312500D03*
X120537500Y-104812500D03*
X120537500Y-105312500D03*
D42*
X121200000Y-105475000D03*
X121700000Y-105475000D03*
X122200000Y-105475000D03*
%TD*%
D43*
%TO.C,J3*%
X109163874Y-61825636D03*
X108063874Y-61825636D03*
X106963874Y-61825636D03*
X105863874Y-61825636D03*
X104763874Y-61825636D03*
X103663874Y-61825636D03*
X102563874Y-61825636D03*
X101463874Y-61825636D03*
D44*
X112833874Y-64425636D03*
X112833874Y-56125636D03*
X99083874Y-64425636D03*
X99083874Y-56125636D03*
%TD*%
D11*
%TO.C,R24*%
X137622500Y-138317500D03*
X137622500Y-140142500D03*
%TD*%
D14*
%TO.C,D24*%
X149802500Y-104854839D03*
X148052500Y-104854839D03*
%TD*%
D18*
%TO.C,R12*%
X125232500Y-68240000D03*
X123407500Y-68240000D03*
%TD*%
D45*
%TO.C,C23*%
X108218107Y-120478910D03*
X109437867Y-121698670D03*
%TD*%
D20*
%TO.C,C27*%
X98045000Y-125862500D03*
X98045000Y-127587500D03*
%TD*%
D31*
%TO.C,C12*%
X88585000Y-140800000D03*
X90310000Y-140800000D03*
%TD*%
D30*
%TO.C,D7*%
X72185000Y-87215000D03*
X72185000Y-88965000D03*
%TD*%
D22*
%TO.C,C15*%
X99380240Y-107269760D03*
X100600000Y-106050000D03*
%TD*%
D46*
%TO.C,D13*%
X88210000Y-142690000D03*
X91010000Y-142690000D03*
%TD*%
D47*
%TO.C,D6*%
X122387500Y-130920000D03*
X119587500Y-130920000D03*
%TD*%
D48*
%TO.C,C25*%
X100302890Y-115436696D03*
X99083130Y-116656456D03*
%TD*%
D14*
%TO.C,D25*%
X149802500Y-106383871D03*
X148052500Y-106383871D03*
%TD*%
D31*
%TO.C,C9*%
X104415000Y-126160000D03*
X106140000Y-126160000D03*
%TD*%
D49*
%TO.C,R3*%
X79049627Y-86493906D03*
X77238231Y-86716318D03*
%TD*%
D12*
%TO.C,Q9*%
X76210000Y-144980000D03*
X78110000Y-144980000D03*
X77160000Y-143105000D03*
%TD*%
D14*
%TO.C,D18*%
X149802500Y-117087097D03*
X148052500Y-117087097D03*
%TD*%
D18*
%TO.C,R14*%
X98140000Y-129140000D03*
X96315000Y-129140000D03*
%TD*%
D10*
%TO.C,R4*%
X85462500Y-84062500D03*
X85462500Y-82237500D03*
%TD*%
%TO.C,R41*%
X118410000Y-74052500D03*
X118410000Y-72227500D03*
%TD*%
D45*
%TO.C,C21*%
X118162496Y-115257744D03*
X119382256Y-116477504D03*
%TD*%
D19*
%TO.C,D5*%
X114682500Y-72280000D03*
X116432500Y-72280000D03*
%TD*%
D10*
%TO.C,R1*%
X83700000Y-88575000D03*
X83700000Y-86750000D03*
%TD*%
D28*
%TO.C,C2*%
X96280000Y-127605000D03*
X96280000Y-125880000D03*
%TD*%
D50*
%TO.C,SW4*%
X149529001Y-95372299D03*
X149529001Y-99522299D03*
X151678999Y-95372299D03*
X151678999Y-99522299D03*
%TD*%
D18*
%TO.C,R39*%
X116972500Y-68740000D03*
X115147500Y-68740000D03*
%TD*%
D48*
%TO.C,C24*%
X101335266Y-116469072D03*
X100115506Y-117688832D03*
%TD*%
D45*
%TO.C,C13*%
X107170240Y-121520240D03*
X108390000Y-122740000D03*
%TD*%
D30*
%TO.C,D10*%
X139212500Y-138350000D03*
X139212500Y-140100000D03*
%TD*%
D51*
%TO.C,C1*%
X93212500Y-121650000D03*
X90087500Y-121650000D03*
%TD*%
D15*
%TO.C,R31*%
X144715000Y-101796774D03*
X146540000Y-101796774D03*
%TD*%
D45*
%TO.C,C14*%
X117130120Y-116290120D03*
X118349880Y-117509880D03*
%TD*%
D11*
%TO.C,R25*%
X75002500Y-138537500D03*
X75002500Y-140362500D03*
%TD*%
D14*
%TO.C,D19*%
X149802500Y-118616129D03*
X148052500Y-118616129D03*
%TD*%
D13*
%TO.C,SW2*%
X148259000Y-132537001D03*
X144109000Y-132537001D03*
X148259000Y-134686999D03*
X144109000Y-134686999D03*
%TD*%
D15*
%TO.C,R10*%
X131777500Y-70520000D03*
X133602500Y-70520000D03*
%TD*%
M02*
