M48
; DRILL file KiCad 10.0.0 date 2026-05-11T14:02:12
; FORMAT={-:-/ absolute / metric / decimal}
; #@! TF.CreationDate,2026-05-11T14:02:12+09:00
; #@! TF.GenerationSoftware,Kicad,Pcbnew,10.0.0
; #@! TF.FileFunction,Plated,1,2,PTH
FMAT,2
METRIC
; #@! TA.AperFunction,Plated,PTH,ViaDrill
T1C0.300
; #@! TA.AperFunction,Plated,PTH,ViaDrill
T2C0.350
; #@! TA.AperFunction,Plated,PTH,ComponentDrill
T3C0.650
; #@! TA.AperFunction,Plated,PTH,ComponentDrill
T4C0.750
; #@! TA.AperFunction,Plated,PTH,ComponentDrill
T5C0.800
; #@! TA.AperFunction,Plated,PTH,ComponentDrill
T6C0.900
; #@! TA.AperFunction,Plated,PTH,ComponentDrill
T7C1.000
%
G90
G05
T1
X71.47Y-85.75
X71.55Y-77.46
X72.25Y-141.59
X72.5Y-137.5
X72.5Y-145.0
X72.5Y-150.0
X75.0Y-62.5
X75.0Y-67.5
X75.0Y-72.5
X75.0Y-77.5
X75.0Y-87.65
X75.23Y-89.16
X75.3Y-143.65
X76.25Y-86.45
X76.3Y-148.0
X78.6Y-80.4
X79.15Y-64.2
X79.72Y-89.28
X80.0Y-67.5
X80.0Y-72.5
X80.0Y-137.5
X80.0Y-140.0
X80.0Y-150.0
X80.03Y-144.52
X80.2Y-83.1
X80.85Y-77.64
X80.85Y-87.1
X81.05Y-59.0
X81.05Y-81.6
X81.3Y-84.6
X81.82Y-75.89
X82.55Y-80.28
X82.65Y-146.9
X83.15Y-143.45
X83.3Y-65.25
X83.47Y-75.45
X83.65Y-70.5
X84.3Y-85.0
X84.325Y-78.525
X84.51Y-139.57
X85.0Y-55.0
X85.0Y-87.5
X85.0Y-92.5
X85.0Y-97.5
X85.0Y-105.0
X85.0Y-112.5
X85.0Y-120.0
X85.0Y-130.0
X85.0Y-135.0
X85.35Y-74.06
X85.65Y-68.05
X86.09Y-76.91
X86.325Y-63.0
X86.75Y-84.0
X86.93Y-58.84
X87.1Y-78.35
X87.46Y-150.32
X87.54Y-146.89
X87.8Y-66.1
X88.2Y-89.575
X88.4Y-70.7
X89.03Y-135.12
X89.55Y-133.05
X89.8Y-87.0
X89.85Y-83.975
X89.925Y-76.7
X89.95Y-81.575
X90.0Y-52.5
X90.0Y-62.5
X90.0Y-67.5
X90.0Y-72.5
X90.0Y-92.5
X90.0Y-97.5
X90.0Y-105.0
X90.0Y-112.5
X90.65Y-129.05
X90.7Y-119.6
X91.7Y-148.8
X92.425Y-90.0
X92.45Y-83.3
X92.55Y-105.3
X92.7Y-100.15
X92.975Y-58.7
X93.05Y-87.2
X93.1Y-75.55
X93.85Y-95.95
X93.925Y-85.7
X94.023Y-103.399
X94.025Y-80.625
X94.05Y-126.95
X94.1Y-118.2
X94.4Y-92.2
X94.6Y-123.8
X94.846Y-102.576
X94.95Y-67.95
X95.0Y-107.5
X95.0Y-150.0
X95.01Y-144.03
X95.3Y-147.95
X95.41Y-135.62
X95.556Y-94.754
X95.68Y-112.71
X96.114Y-89.386
X96.55Y-101.8
X96.67Y-93.7
X96.8Y-98.66
X97.05Y-104.85
X97.1Y-65.5
X97.3Y-124.45
X97.5Y-52.5
X97.5Y-57.5
X97.5Y-77.5
X97.5Y-82.5
X97.5Y-87.5
X97.5Y-115.0
X97.5Y-120.0
X97.75Y-68.0
X97.78Y-141.2
X97.89Y-145.0
X98.05Y-72.39
X98.221Y-97.419
X98.72Y-98.215
X99.231Y-109.734
X99.32Y-129.09
X99.45Y-124.4
X99.5Y-95.85
X99.5Y-123.05
X99.59Y-60.9
X99.6Y-104.8
X99.78Y-109.22
X100.0Y-112.5
X100.05Y-102.1
X100.5Y-63.4
X100.618Y-103.085
X100.921Y-101.824
X100.94Y-93.11
X100.961Y-121.278
X101.141Y-102.544
X101.158Y-109.549
X101.48Y-101.32
X101.502Y-66.7
X101.65Y-118.3
X101.71Y-110.11
X101.85Y-100.15
X101.923Y-103.326
X102.01Y-125.97
X102.11Y-65.97
X102.375Y-96.04
X102.42Y-144.1
X102.45Y-117.63
X102.5Y-97.5
X102.5Y-150.0
X102.766Y-120.085
X102.85Y-108.59
X103.0Y-138.46
X103.023Y-104.427
X103.68Y-60.75
X104.24Y-113.16
X104.69Y-140.68
X104.86Y-67.92
X105.0Y-52.5
X105.0Y-57.5
X105.0Y-65.0
X105.0Y-72.5
X105.0Y-77.5
X105.211Y-110.294
X105.43Y-123.21
X105.487Y-115.071
X105.72Y-129.78
X105.763Y-109.642
X105.806Y-96.992
X106.06Y-115.62
X106.319Y-109.135
X106.43Y-103.97
X106.547Y-120.338
X106.61Y-96.992
X106.63Y-94.79
X106.9Y-110.54
X107.0Y-125.45
X107.2Y-100.8
X107.25Y-113.44
X107.37Y-138.23
X107.468Y-97.631
X107.85Y-116.35
X107.87Y-144.49
X107.918Y-147.232
X108.1Y-60.5
X108.3Y-121.6
X108.6Y-67.95
X108.62Y-107.76
X108.75Y-110.1
X108.8Y-96.55
X108.872Y-98.156
X109.0Y-99.5
X109.075Y-104.975
X109.15Y-127.03
X109.19Y-123.65
X109.247Y-97.503
X109.47Y-103.58
X109.74Y-76.64
X110.0Y-150.0
X110.05Y-66.75
X110.06Y-137.2
X110.1Y-108.8
X110.147Y-107.661
X110.35Y-63.5
X110.54Y-73.57
X110.68Y-113.06
X110.811Y-120.229
X110.933Y-108.232
X110.969Y-129.772
X111.1Y-61.2
X111.13Y-104.007
X111.18Y-116.48
X111.219Y-123.244
X111.24Y-134.11
X111.28Y-125.83
X111.3Y-102.1
X111.39Y-68.58
X111.45Y-72.7
X111.574Y-129.167
X111.575Y-122.581
X111.85Y-137.9
X112.0Y-145.2
X112.055Y-102.945
X112.08Y-112.8
X112.5Y-52.5
X112.5Y-82.5
X112.7Y-93.95
X112.746Y-119.44
X112.83Y-115.2
X112.85Y-58.1
X113.09Y-105.56
X113.2Y-118.84
X113.23Y-111.3
X113.39Y-88.11
X113.47Y-66.42
X113.61Y-75.26
X113.69Y-107.42
X113.78Y-113.249
X113.78Y-120.17
X113.84Y-133.79
X113.95Y-68.0
X113.95Y-98.9
X114.093Y-77.75
X114.15Y-127.25
X114.17Y-65.08
X114.222Y-125.204
X114.222Y-125.985
X114.284Y-104.159
X114.35Y-94.6
X114.5Y-101.25
X114.67Y-122.93
X115.072Y-117.555
X115.139Y-119.371
X115.197Y-87.751
X115.33Y-86.838
X115.4Y-147.5
X115.43Y-144.63
X115.54Y-82.49
X115.55Y-70.2
X115.75Y-75.85
X115.794Y-120.026
X115.85Y-107.76
X115.901Y-106.699
X115.93Y-121.09
X116.049Y-104.22
X116.059Y-105.011
X116.39Y-118.47
X116.447Y-112.144
X116.67Y-129.44
X116.698Y-78.46
X116.7Y-126.65
X117.0Y-99.5
X117.1Y-133.6
X117.2Y-138.1
X117.25Y-87.45
X117.43Y-113.91
X117.478Y-108.758
X117.5Y-105.0
X117.5Y-150.0
X117.75Y-84.5
X117.9Y-82.6
X117.959Y-70.151
X118.04Y-75.61
X118.05Y-79.75
X118.4Y-112.26
X118.45Y-90.6
X118.46Y-123.27
X118.694Y-83.191
X118.7Y-96.6
X118.83Y-120.93
X119.014Y-107.966
X119.15Y-77.0
X119.219Y-118.631
X119.249Y-83.699
X119.335Y-144.362
X119.36Y-145.82
X119.5Y-102.7
X119.53Y-75.78
X119.569Y-107.459
X119.6Y-114.9
X119.65Y-132.95
X119.66Y-128.35
X119.67Y-135.69
X119.751Y-140.742
X119.751Y-119.163
X119.893Y-91.893
X119.9Y-99.35
X120.0Y-52.5
X120.0Y-62.5
X120.0Y-67.5
X120.144Y-106.884
X120.45Y-82.25
X120.856Y-120.028
X121.01Y-113.64
X121.17Y-138.12
X121.27Y-102.97
X121.35Y-121.05
X121.35Y-127.1
X121.35Y-130.85
X121.41Y-123.65
X121.45Y-133.85
X121.482Y-136.146
X121.5Y-94.2
X121.5Y-99.75
X121.6Y-109.05
X121.662Y-112.999
X121.7Y-144.79
X121.71Y-104.55
X122.28Y-142.05
X122.5Y-66.625
X122.5Y-77.5
X122.567Y-114.4
X123.12Y-115.1
X123.7Y-136.25
X123.85Y-107.75
X124.05Y-144.72
X124.1Y-147.25
X124.15Y-72.05
X124.2Y-140.82
X124.25Y-87.05
X124.438Y-138.32
X124.74Y-114.47
X124.93Y-62.69
X125.0Y-150.0
X125.09Y-144.362
X125.15Y-67.15
X125.25Y-81.7
X125.35Y-83.95
X125.42Y-92.38
X125.525Y-59.375
X125.77Y-77.15
X125.845Y-136.045
X125.87Y-97.35
X126.1Y-137.875
X126.26Y-120.82
X126.31Y-103.66
X126.35Y-145.5
X126.5Y-135.675
X126.52Y-141.21
X126.55Y-111.66
X126.57Y-131.41
X126.75Y-68.45
X126.85Y-71.4
X126.88Y-116.31
X127.325Y-135.225
X127.5Y-55.0
X127.5Y-79.35
X127.6Y-82.05
X127.775Y-138.815
X128.35Y-139.65
X128.88Y-145.89
X129.1Y-67.79
X129.5Y-84.65
X129.57Y-89.54
X129.66Y-87.63
X129.81Y-81.64
X129.89Y-137.3
X130.0Y-77.5
X130.775Y-142.2
X131.65Y-139.05
X132.465Y-72.565
X132.5Y-150.0
X132.67Y-68.95
X133.0Y-147.45
X133.41Y-137.26
X133.49Y-140.72
X135.0Y-60.0
X135.06Y-65.38
X135.125Y-80.575
X135.15Y-69.45
X136.35Y-71.8
X136.54Y-89.5
X136.61Y-87.63
X137.7Y-69.45
X139.5Y-149.94
X139.74Y-141.37
X140.0Y-67.5
X140.0Y-75.0
X140.0Y-82.5
X140.42Y-137.37
X140.59Y-88.6
X143.56Y-125.57
X143.64Y-101.762
X143.64Y-103.294
X143.64Y-104.826
X143.64Y-106.358
X143.64Y-107.89
X143.64Y-109.422
X143.64Y-110.954
X143.64Y-112.486
X143.64Y-114.018
X143.641Y-120.145
X143.642Y-118.616
X143.644Y-121.674
X143.645Y-117.087
X143.647Y-123.203
X143.648Y-115.558
X143.72Y-133.6
X144.08Y-100.47
X144.09Y-97.14
X144.45Y-126.828
X144.738Y-125.798
X145.5Y-92.2
X145.5Y-132.2
X145.5Y-134.7
X146.21Y-126.08
X147.19Y-130.75
X147.3Y-100.725
X148.0Y-97.2
X148.987Y-113.183
X149.036Y-108.696
X149.14Y-131.93
X149.28Y-130.18
X149.73Y-125.85
X149.77Y-111.75
X150.188Y-129.028
X150.5Y-92.2
X150.5Y-97.2
X150.5Y-134.7
X151.58Y-123.62
X151.812Y-121.167
X151.95Y-104.71
X151.96Y-120.36
X151.996Y-115.692
X152.3Y-117.9
X152.349Y-114.504
X152.468Y-118.633
X152.49Y-100.54
X152.65Y-106.88
X152.77Y-103.77
X152.86Y-110.68
X153.0Y-127.2
X153.0Y-134.7
X153.16Y-122.38
X153.23Y-98.31
X153.753Y-114.08
X153.84Y-105.75
X155.375Y-107.65
X155.5Y-92.2
X155.5Y-104.7
X155.5Y-112.2
X155.5Y-119.7
X155.5Y-127.2
X155.5Y-134.7
X156.3Y-101.25
X157.75Y-97.15
X157.75Y-104.65
X157.75Y-112.15
X157.75Y-119.7
T2
X81.15Y-86.0
X81.35Y-66.45
X86.7Y-71.75
X91.222Y-82.475
X93.25Y-62.5
X94.42Y-128.68
X95.2Y-113.9
X95.25Y-132.95
X127.85Y-74.1
X130.4Y-80.5
T3
X118.68Y-147.57
X118.68Y-148.84
X119.95Y-147.57
X119.95Y-148.84
X121.22Y-147.57
X121.22Y-148.84
X122.49Y-147.57
X122.49Y-148.84
X144.51Y-127.78
X144.51Y-129.05
X145.78Y-127.78
X145.78Y-129.05
X147.05Y-127.78
X147.05Y-129.05
X148.32Y-127.78
X148.32Y-129.05
T4
X85.11Y-141.46
X85.11Y-143.46
T5
X81.9Y-148.63
X83.9Y-148.63
T6
X75.747Y-82.519
X76.141Y-84.86
X78.269Y-82.209
X78.662Y-84.55
X81.03Y-61.246
X82.3Y-63.446
X83.072Y-59.868
X84.342Y-62.067
X127.662Y-62.55
X128.933Y-60.35
X129.71Y-63.628
X130.98Y-61.428
X133.657Y-84.75
X133.806Y-82.409
X136.178Y-85.06
X136.328Y-82.719
T7
X96.47Y-139.76
X96.47Y-142.3
X99.01Y-139.76
X99.01Y-142.3
X101.55Y-139.76
X101.55Y-142.3
X108.77Y-139.76
X108.77Y-142.3
X111.31Y-139.76
X111.31Y-142.3
X113.85Y-139.76
X113.85Y-142.3
M30
