%TF.GenerationSoftware,KiCad,Pcbnew,10.0.0*%
%TF.CreationDate,2026-05-11T14:02:22+09:00*%
%TF.ProjectId,yuho,7975686f-2e6b-4696-9361-645f70636258,rev?*%
%TF.SameCoordinates,Original*%
%TF.FileFunction,Soldermask,Bot*%
%TF.FilePolarity,Negative*%
%FSLAX46Y46*%
G04 Gerber Fmt 4.6, Leading zero omitted, Abs format (unit mm)*
G04 Created by KiCad (PCBNEW 10.0.0) date 2026-05-11 14:02:22*
%MOMM*%
%LPD*%
G01*
G04 APERTURE LIST*
G04 Aperture macros list*
%AMRoundRect*
0 Rectangle with rounded corners*
0 $1 Rounding radius*
0 $2 $3 $4 $5 $6 $7 $8 $9 X,Y pos of 4 corners*
0 Add a 4 corners polygon primitive as box body*
4,1,4,$2,$3,$4,$5,$6,$7,$8,$9,$2,$3,0*
0 Add four circle primitives for the rounded corners*
1,1,$1+$1,$2,$3*
1,1,$1+$1,$4,$5*
1,1,$1+$1,$6,$7*
1,1,$1+$1,$8,$9*
0 Add four rect primitives between the rounded corners*
20,1,$1+$1,$2,$3,$4,$5,0*
20,1,$1+$1,$4,$5,$6,$7,0*
20,1,$1+$1,$6,$7,$8,$9,0*
20,1,$1+$1,$8,$9,$2,$3,0*%
%AMRotRect*
0 Rectangle, with rotation*
0 The origin of the aperture is its center*
0 $1 length*
0 $2 width*
0 $3 Rotation angle, in degrees counterclockwise*
0 Add horizontal line*
21,1,$1,$2,0,0,$3*%
G04 Aperture macros list end*
%ADD10RotRect,1.800000X1.800000X173.000000*%
%ADD11C,1.800000*%
%ADD12RotRect,1.800000X1.800000X120.000000*%
%ADD13RoundRect,0.250000X-0.625000X0.350000X-0.625000X-0.350000X0.625000X-0.350000X0.625000X0.350000X0*%
%ADD14O,1.750000X1.200000*%
%ADD15RotRect,1.800000X1.800000X187.000000*%
%ADD16R,1.000000X1.000000*%
%ADD17C,1.000000*%
%ADD18R,1.350000X1.350000*%
%ADD19C,1.350000*%
%ADD20RotRect,1.800000X1.800000X240.000000*%
%ADD21R,1.700000X1.700000*%
%ADD22C,1.700000*%
%ADD23RoundRect,0.237500X0.237500X-0.250000X0.237500X0.250000X-0.237500X0.250000X-0.237500X-0.250000X0*%
%ADD24R,1.550000X0.650000*%
%ADD25RoundRect,0.237500X-0.300000X-0.237500X0.300000X-0.237500X0.300000X0.237500X-0.300000X0.237500X0*%
G04 APERTURE END LIST*
D10*
%TO.C,D2*%
X136177997Y-85059548D03*
D11*
X133656930Y-84750000D03*
%TD*%
D12*
%TO.C,Q6*%
X84342318Y-62067352D03*
D11*
X83072318Y-59867647D03*
%TD*%
D13*
%TO.C,FAN1*%
X85110000Y-141460000D03*
D14*
X85110000Y-143460000D03*
%TD*%
D12*
%TO.C,D3*%
X82300000Y-63445818D03*
D11*
X81030000Y-61246113D03*
%TD*%
D15*
%TO.C,D1*%
X78662500Y-84550000D03*
D11*
X76141433Y-84859548D03*
%TD*%
D16*
%TO.C,J2*%
X122490000Y-147570000D03*
D17*
X122490000Y-148840000D03*
X121220000Y-147570000D03*
X121220000Y-148840000D03*
X119950000Y-147570000D03*
X119950000Y-148840000D03*
X118680000Y-147570000D03*
X118680000Y-148840000D03*
%TD*%
D18*
%TO.C,BAT1*%
X83900000Y-148630000D03*
D19*
X81900000Y-148630000D03*
%TD*%
D20*
%TO.C,Q8*%
X128932500Y-60350295D03*
D11*
X127662500Y-62550000D03*
%TD*%
D10*
%TO.C,Q4*%
X136327534Y-82718642D03*
D11*
X133806467Y-82409094D03*
%TD*%
D21*
%TO.C,J_R1*%
X108770000Y-139760000D03*
D22*
X108770000Y-142300000D03*
X111310000Y-139760000D03*
X111310000Y-142300000D03*
X113850000Y-139760000D03*
X113850000Y-142300000D03*
%TD*%
D21*
%TO.C,J_L1*%
X96470000Y-139760000D03*
D22*
X96470000Y-142300000D03*
X99010000Y-139760000D03*
X99010000Y-142300000D03*
X101550000Y-139760000D03*
X101550000Y-142300000D03*
%TD*%
D20*
%TO.C,D4*%
X130979818Y-61428465D03*
D11*
X129709818Y-63628170D03*
%TD*%
D15*
%TO.C,Q2*%
X78268533Y-82209094D03*
D11*
X75747466Y-82518642D03*
%TD*%
D23*
%TO.C,R28*%
X153820000Y-117385000D03*
X153820000Y-115560000D03*
%TD*%
D24*
%TO.C,U7*%
X145150000Y-110640000D03*
X145150000Y-109370000D03*
X145150000Y-108100000D03*
X145150000Y-106830000D03*
X145150000Y-105560000D03*
X145150000Y-104290000D03*
X145150000Y-103020000D03*
X145150000Y-101750000D03*
X150600000Y-101750000D03*
X150600000Y-103020000D03*
X150600000Y-104290000D03*
X150600000Y-105560000D03*
X150600000Y-106830000D03*
X150600000Y-108100000D03*
X150600000Y-109370000D03*
X150600000Y-110640000D03*
%TD*%
D25*
%TO.C,C17*%
X150997500Y-112340000D03*
X152722500Y-112340000D03*
%TD*%
D24*
%TO.C,U6*%
X145140000Y-122830000D03*
X145140000Y-121560000D03*
X145140000Y-120290000D03*
X145140000Y-119020000D03*
X145140000Y-117750000D03*
X145140000Y-116480000D03*
X145140000Y-115210000D03*
X145140000Y-113940000D03*
X150590000Y-113940000D03*
X150590000Y-115210000D03*
X150590000Y-116480000D03*
X150590000Y-117750000D03*
X150590000Y-119020000D03*
X150590000Y-120290000D03*
X150590000Y-121560000D03*
X150590000Y-122830000D03*
%TD*%
D25*
%TO.C,C18*%
X150837500Y-124520000D03*
X152562500Y-124520000D03*
%TD*%
D16*
%TO.C,J4*%
X144510000Y-127780000D03*
D17*
X144510000Y-129050000D03*
X145780000Y-127780000D03*
X145780000Y-129050000D03*
X147050000Y-127780000D03*
X147050000Y-129050000D03*
X148320000Y-127780000D03*
X148320000Y-129050000D03*
%TD*%
M02*
