%TF.GenerationSoftware,KiCad,Pcbnew,10.0.0*%
%TF.CreationDate,2026-05-11T14:02:22+09:00*%
%TF.ProjectId,yuho,7975686f-2e6b-4696-9361-645f70636258,rev?*%
%TF.SameCoordinates,Original*%
%TF.FileFunction,Profile,NP*%
%FSLAX46Y46*%
G04 Gerber Fmt 4.6, Leading zero omitted, Abs format (unit mm)*
G04 Created by KiCad (PCBNEW 10.0.0) date 2026-05-11 14:02:22*
%MOMM*%
%LPD*%
G01*
G04 APERTURE LIST*
%TA.AperFunction,Profile*%
%ADD10C,0.250000*%
%TD*%
G04 APERTURE END LIST*
D10*
X70941301Y-71405338D02*
G75*
G02*
X75334701Y-60798737I14999999J-2D01*
G01*
X70941301Y-89892394D02*
X70941301Y-71405338D01*
X70941301Y-136892394D02*
X83041301Y-136892394D01*
X70941301Y-151050000D02*
X70941301Y-136892394D01*
X70941301Y-151050000D02*
X140941301Y-151050000D01*
X74118677Y-73473757D02*
X74484285Y-76451396D01*
X74484285Y-76451396D02*
X77461923Y-76085788D01*
X75334700Y-60798736D02*
X80690036Y-55443400D01*
X77096315Y-73108149D02*
X74118677Y-73473757D01*
X77461923Y-76085788D02*
X77096315Y-73108149D01*
X80690036Y-55443400D02*
G75*
G02*
X91296642Y-51050000I10606604J-10606600D01*
G01*
X83041301Y-89892394D02*
X70941301Y-89892394D01*
X83041301Y-136892394D02*
X83041301Y-89892394D01*
X86741301Y-100882394D02*
G75*
G02*
X84741301Y-100882394I-1000000J0D01*
G01*
X84741301Y-100882394D02*
G75*
G02*
X86741301Y-100882394I1000000J0D01*
G01*
X86741301Y-125902394D02*
G75*
G02*
X84741301Y-125902394I-1000000J0D01*
G01*
X84741301Y-125902394D02*
G75*
G02*
X86741301Y-125902394I1000000J0D01*
G01*
X88621133Y-56667124D02*
X90121133Y-59265201D01*
X90121133Y-59265201D02*
X92719210Y-57765201D01*
X91219210Y-55167124D02*
X88621133Y-56667124D01*
X91296642Y-51050000D02*
X120585963Y-51050000D01*
X92719210Y-57765201D02*
X91219210Y-55167124D01*
X106941301Y-69515575D02*
G75*
G02*
X104941301Y-69515575I-1000000J0D01*
G01*
X104941301Y-69515575D02*
G75*
G02*
X106941301Y-69515575I1000000J0D01*
G01*
X112441301Y-87608335D02*
G75*
G02*
X99441301Y-87608335I-6500000J0D01*
G01*
X99441301Y-87608335D02*
G75*
G02*
X112441301Y-87608335I6500000J0D01*
G01*
X119163392Y-57765201D02*
X121761469Y-59265201D01*
X120585963Y-51050000D02*
G75*
G02*
X131192584Y-55443380I37J-15000000D01*
G01*
X120663392Y-55167124D02*
X119163392Y-57765201D01*
X121761469Y-59265201D02*
X123261469Y-56667124D01*
X123261469Y-56667124D02*
X120663392Y-55167124D01*
X127141301Y-100882394D02*
G75*
G02*
X125141301Y-100882394I-1000000J0D01*
G01*
X125141301Y-100882394D02*
G75*
G02*
X127141301Y-100882394I1000000J0D01*
G01*
X127141301Y-125902394D02*
G75*
G02*
X125141301Y-125902394I-1000000J0D01*
G01*
X125141301Y-125902394D02*
G75*
G02*
X127141301Y-125902394I1000000J0D01*
G01*
X128841301Y-89892394D02*
X128841301Y-136892394D01*
X128841301Y-136892394D02*
X140941301Y-136892394D01*
X131192565Y-55443399D02*
X136547901Y-60798735D01*
X134420679Y-76085788D02*
X137398317Y-76451396D01*
X134786287Y-73108149D02*
X134420679Y-76085788D01*
X136547901Y-60798735D02*
G75*
G02*
X140941274Y-71405341I-10606601J-10606565D01*
G01*
X137398317Y-76451396D02*
X137763925Y-73473757D01*
X137763925Y-73473757D02*
X134786287Y-73108149D01*
X140941301Y-89892394D02*
X128841301Y-89892394D01*
X140941301Y-89892394D02*
X140941301Y-71405341D01*
X140941301Y-151050000D02*
X140941301Y-136892394D01*
X143200000Y-90650000D02*
X158200000Y-90650000D01*
X143200000Y-135650000D02*
X143200000Y-90650000D01*
X155200000Y-92950000D02*
G75*
G02*
X153200000Y-92950000I-1000000J0D01*
G01*
X153200000Y-92950000D02*
G75*
G02*
X155200000Y-92950000I1000000J0D01*
G01*
X155200000Y-133350000D02*
G75*
G02*
X153200000Y-133350000I-1000000J0D01*
G01*
X153200000Y-133350000D02*
G75*
G02*
X155200000Y-133350000I1000000J0D01*
G01*
X158200000Y-90650000D02*
X158200000Y-135650000D01*
X158200000Y-135650000D02*
X143200000Y-135650000D01*
M02*
